<svg enable-background="new 0 0 118.53 122.88" viewBox="0 0 118.53 122.88" xmlns="http://www.w3.org/2000/svg"><path d="m113.53 75.55c-14.65 3.02-15.66-1.94-15.66-1.94 15.47-22.95 21.93-52.09 16.35-59.22-15.22-19.45-41.57-10.25-42.01-10.01l-.15.02c-2.89-.6-6.13-.96-9.77-1.02-6.63-.11-11.66 1.74-15.47 4.63 0 0-47.01-19.37-44.82 24.36.47 9.3 13.33 70.38 28.68 51.93 5.61-6.75 11.03-12.45 11.03-12.45 2.69 1.79 5.92 2.7 9.29 2.37l.26-.22c-.08.84-.04 1.66.1 2.63-3.95 4.42-2.79 5.19-10.7 6.82-8 1.65-3.3 4.58-.23 5.35 3.72.93 12.32 2.25 18.14-5.89l-.23.93c1.55 1.24 2.64 8.07 2.46 14.26s-.3 10.44.92 13.76 2.44 10.79 12.83 8.56c8.68-1.86 13.18-6.68 13.81-14.72.44-5.72 1.45-4.87 1.51-9.98l.81-2.42c.93-7.75.15-10.25 5.5-9.09l1.3.11c3.94.18 9.09-.63 12.11-2.04 6.49-3.01 10.36-8.06 3.94-6.73z" fill="#336791"/><g fill="#fff"><path d="m57.39 79.94c.03-1 .86-1.79 1.86-1.76s1.79.86 1.76 1.86c-.21 7.43-.17 14.88.1 20.84.25 5.37.68 9.41 1.28 10.91.64 1.59 1.63 3.94 3.53 5.53 1.85 1.56 4.7 2.51 9.24 1.54 3.97-.85 6.64-2.06 8.42-3.91 1.76-1.83 2.76-4.42 3.38-8.04.46-2.64 1.09-7.25 1.66-11.84.72-5.74 1.38-11.54 1.52-13.41.07-1 .94-1.75 1.94-1.67 1 .07 1.75.94 1.67 1.94-.14 1.82-.8 7.69-1.55 13.6-.6 4.74-1.24 9.44-1.68 11.99-.75 4.33-2.02 7.52-4.35 9.94-2.32 2.41-5.57 3.93-10.28 4.94-5.85 1.25-9.71-.12-12.32-2.32-2.57-2.16-3.79-5.02-4.56-6.95-.76-1.89-1.27-6.35-1.54-12.1-.26-6.01-.29-13.56-.08-21.09z"/><path d="m47.41 6.01c.93.37 1.38 1.42 1.01 2.35s-1.42 1.38-2.35 1.01c-.12-.05-44.42-18.15-42.37 22.73.25 5.05 4.25 25.71 10.33 40.12 1.92 4.54 4.03 8.42 6.27 10.9 1.87 2.08 3.78 3.08 5.62 2.42 1.02-.37 2.11-1.2 3.26-2.58 5.63-6.77 10.75-12.12 10.77-12.13.69-.72 1.83-.75 2.55-.06s.75 1.83.06 2.55c-.01.01-5.01 5.22-10.6 11.95-1.59 1.92-3.21 3.11-4.84 3.69-3.46 1.23-6.64-.21-9.52-3.41-2.52-2.79-4.84-7.02-6.9-11.93-6.25-14.79-10.36-36.11-10.62-41.35-2.33-46.56 47.19-26.32 47.33-26.26z"/><path d="m73.1 5.73-2.69-2.94c.22-.08.44-.15.66-.21.59-.19 1.23-.38 1.92-.58 1.01-.3 2.49-.69 4.3-1.04 9.03-1.75 26.65-2.7 38.26 12.14 3.28 4.19 3.01 14.56-.38 26.84-3 10.87-8.41 23.4-15.89 34.5-.56.83-1.69 1.05-2.52.49s-1.05-1.69-.49-2.52c7.26-10.77 12.5-22.92 15.41-33.44 3.1-11.22 3.59-20.37 1.02-23.65-10.42-13.31-26.49-12.41-34.74-10.8-1.69.33-3.04.68-3.96.95z"/><path d="m99.49 72.87c.02.05.03.1.04.15 0 .01.62 3.24 13.53.58 1.83-.38 3.13-.3 3.97.11 1.09.52 1.56 1.39 1.49 2.51-.04.68-.36 1.41-.89 2.14-1.22 1.67-4.01 3.83-7.4 5.4-2.54 1.18-6.41 1.97-9.96 2.17-2.09.12-4.09.04-5.68-.28-2-.4-3.52-1.23-4.15-2.58-.17-.36-.27-.75-.29-1.17-.4-7.02 3.02-8.25 5.41-8.93-.25-.36-.59-.79-.97-1.26-1.21-1.51-2.76-3.45-3.99-6.42-.19-.45-.74-1.45-1.48-2.77-3.13-5.61-9.29-16.67-8.08-24.22.86-5.39 4.97-8.97 15.24-7.9l-.1-.3c-.49-1.39-1.27-3.21-2.4-5.25-4.48-8.16-14.25-19.54-31.6-19.82-26.47-.43-25.6 32.95-25.6 33.04.02 1-.78 1.82-1.78 1.84s-1.82-.78-1.84-1.78c0-.11-.98-37.21 29.27-36.72 19.1.31 29.82 12.77 34.72 21.69 1.22 2.22 2.09 4.24 2.64 5.81.62 1.76.85 3.14.75 3.75-.14.9-.64 1.46-1.5 1.63l-.65.01c-9.42-1.51-12.98.8-13.58 4.56-1.01 6.33 4.75 16.65 7.67 21.9.79 1.42 1.39 2.5 1.66 3.16 1.04 2.51 2.4 4.21 3.46 5.55.99 1.21 1.77 2.19 2.09 3.4zm14.3 4.27c-9.57 1.98-14.03.53-16.08-1.03-.28.09-.58.17-.9.26-1.28.36-3.27.92-3.06 5.22.15.16.71.33 1.53.5 1.31.26 2.99.32 4.78.22 3.13-.18 6.5-.85 8.65-1.85 2.21-1.03 4.06-2.27 5.2-3.35z"/><path d="m52.6 77.67c-.74.83-1.35 1.6-1.87 2.26-2.22 2.82-2.91 3.7-9.8 5.12-1.24.26-2.08.51-2.6.76.64.46 1.6.84 2.44 1.05 1.7.43 4.52.94 7.54.43 2.94-.5 6.11-2.01 8.68-5.61.08-.12.15-.25.21-.38.26-.63.2-1.42-.06-2.17-.28-.8-.79-1.5-1.38-1.93-.14-.1-.28-.18-.43-.24l-.09-.04c-.37-.15-.78-.31-1.13-.28-.38.04-.86.3-1.51 1.03zm-4.72.01c.49-.62 1.06-1.34 1.92-2.31.07-.09.15-.18.23-.26 1.33-1.44 2.6-1.98 3.77-2.08 1.16-.1 2.06.23 2.82.55.03.01.06.02.1.04.39.16.77.38 1.14.64 1.19.85 2.17 2.2 2.7 3.67.54 1.53.63 3.24-.01 4.76-.16.38-.36.74-.61 1.09-3.24 4.54-7.28 6.44-11.02 7.08-3.67.63-7.01.02-9.03-.48-1.47-.37-3.29-1.19-4.36-2.19-.63-.59-1.06-1.29-1.18-2.07-.14-.93.14-1.83.99-2.63.82-.77 2.34-1.47 4.85-1.99 5.59-1.15 6.09-1.78 7.69-3.82z"/><path d="m52.79 76.1c.15.99-.53 1.92-1.52 2.06s-1.92-.53-2.06-1.52c-.04-.24-.06-.48-.08-.73-.6-.02-1.19-.06-1.77-.15-3.88-.54-7.39-2.5-10.03-5.4-2.61-2.86-4.37-6.64-4.78-10.86-.15-1.5-.12-3.06.1-4.63.89-6.34.55-12.01.38-14.95-.05-.8-.08-1.4-.08-1.86.01-1.19 3-3.81 6.94-5.43 1.78-.73 3.77-1.34 5.74-1.64 2.08-.31 4.18-.28 6.07.31 2.96.93 5.31 3.12 6.21 7.31 3.25 15.01.34 21.46-1.93 26.51-.39.87-.76 1.69-1.04 2.43-.01.05-.03.09-.05.14-.95 2.56.44-1.19-.28.72-1.13 3.08-2.12 5.72-1.82 7.69zm-3.27-3.8c.39-1.61 1.03-3.31 1.71-5.14.54-1.44-.87 2.33.26-.72.02-.05.04-.1.06-.15.35-.93.73-1.76 1.12-2.64 2.06-4.57 4.68-10.41 1.69-24.25-.58-2.69-1.99-4.07-3.75-4.62-1.32-.41-2.87-.42-4.46-.18-1.7.26-3.4.78-4.92 1.4-2.67 1.09-4.69 2.01-4.69 2.09 0 .26.03.85.08 1.64.18 3.05.53 8.96-.4 15.66-.18 1.31-.21 2.58-.09 3.8.33 3.4 1.75 6.45 3.86 8.76 2.08 2.28 4.83 3.83 7.85 4.25.56.06 1.12.1 1.68.1z"/><path d="m46.57 37.82c-.08.59 1.09 2.18 2.61 2.39s2.83-1.03 2.91-1.62-1.09-1.25-2.61-1.46-2.83.1-2.91.69z"/><path d="m47.17 37.9c-.02.13.19.47.54.84.39.41.94.78 1.55.87h.01c.6.08 1.16-.12 1.58-.41.39-.26.63-.54.66-.7 0-.03-.15-.12-.4-.26-.41-.23-1.01-.42-1.7-.52h-.02c-.68-.09-1.31-.07-1.76.04-.28.07-.46.12-.46.14zm-.33 1.67c-.59-.62-.92-1.36-.86-1.82v-.02c.08-.57.59-.96 1.37-1.15.59-.14 1.37-.17 2.2-.06h.03c.84.12 1.59.36 2.12.66.7.39 1.09.92 1.01 1.48-.06.44-.51 1.08-1.18 1.53-.63.43-1.49.74-2.42.61h-.01c-.92-.12-1.71-.65-2.26-1.23z"/><path d="m93.01 36.61c.08.59-1.09 2.18-2.61 2.39-1.53.21-2.83-1.03-2.91-1.62s1.09-1.25 2.62-1.46c1.51-.21 2.81.1 2.9.69z"/><path d="m93.3 36.57c.05.38-.25 1.03-.78 1.59-.51.54-1.25 1.03-2.09 1.14h-.01c-.84.11-1.62-.17-2.2-.56-.6-.4-.99-.95-1.05-1.32-.06-.43.27-.85.86-1.18.5-.28 1.21-.51 2.01-.62s1.55-.08 2.11.05c.66.15 1.09.46 1.15.9zm-1.22 1.17c.41-.43.65-.87.62-1.09-.02-.16-.28-.3-.68-.4-.49-.12-1.16-.14-1.89-.04-.72.1-1.36.31-1.8.55-.36.2-.57.41-.55.57.03.22.33.59.79.9.47.32 1.11.55 1.79.46h.01c.67-.09 1.28-.5 1.71-.95z"/><path d="m96.65 32.59c-.05-1 .72-1.85 1.72-1.9s1.85.72 1.9 1.72c.15 2.8-.19 5.02-.55 7.35-.27 1.74-.55 3.56-.61 5.59-.06 1.93.19 4.07.46 6.27.7 5.79 1.44 11.99-2.86 18.4-.56.83-1.68 1.05-2.51.5-.83-.56-1.05-1.68-.5-2.51 3.54-5.29 2.88-10.8 2.26-15.96-.28-2.3-.55-4.54-.47-6.8.07-2.34.36-4.21.64-6.02.34-2.18.65-4.24.52-6.64z"/></g></svg>